ISO-10303-21;
HEADER;
/* Generated by software containing ST-Developer
 * from STEP Tools, Inc. (www.steptools.com) 
 */
/* OPTION: using custom renumber hook */

FILE_DESCRIPTION(
/* description */ ('STEP AP242 Edition 2',
'CAx-IF Rec.Pracs.---Representation and Presentation of Product Manufa
cturing Information (PMI)---4.0---2014-10-13',
'CAx-IF Rec.Pracs.---3D Tessellated Geometry---0.4---2014-09-14','2;1',
'CAx-IF Rec.Pracs.---User Defined Attributes---1.5---2016-08-15'),
/* implementation_level */ '2;1');

FILE_NAME(
/* name */ 'Part Studio 1 - Display Cover - Right',
/* time_stamp */ '2026-08-23T00:07:54Z',
/* author */ (''),
/* organization */ (''),
/* preprocessor_version */ 'ST-DEVELOPER v20',
/* originating_system */ 'ONSHAPE BY PTC INC, 1.219',
/* authorisation */ '  ');

FILE_SCHEMA (('AP242_MANAGED_MODEL_BASED_3D_ENGINEERING_MIM_LF { 1 0 10303 442 3 1 4 }'));
ENDSEC;

DATA;
#10=SHAPE_REPRESENTATION_RELATIONSHIP('','',#464,#11);
#11=ADVANCED_BREP_SHAPE_REPRESENTATION('',(#462),#754);
#12=CIRCLE('',#468,0.0005);
#13=CIRCLE('',#469,0.0005);
#14=CIRCLE('',#472,0.0005);
#15=CIRCLE('',#473,0.0005);
#16=CIRCLE('',#476,0.0005);
#17=CIRCLE('',#477,0.0005);
#18=CIRCLE('',#485,0.0003740658);
#19=CIRCLE('',#486,0.0003740658);
#20=CIRCLE('',#492,0.001);
#21=CIRCLE('',#493,0.001);
#22=CIRCLE('',#495,0.001);
#23=CIRCLE('',#496,0.001);
#24=CIRCLE('',#499,0.000500000000000018);
#25=CIRCLE('',#500,0.000500000000000018);
#26=CYLINDRICAL_SURFACE('',#467,0.0005);
#27=CYLINDRICAL_SURFACE('',#471,0.0005);
#28=CYLINDRICAL_SURFACE('',#475,0.0005);
#29=CYLINDRICAL_SURFACE('',#484,0.0003740658);
#30=CYLINDRICAL_SURFACE('',#491,0.001);
#31=CYLINDRICAL_SURFACE('',#494,0.001);
#32=CYLINDRICAL_SURFACE('',#498,0.000500000000000018);
#33=ORIENTED_EDGE('',*,*,#155,.T.);
#34=ORIENTED_EDGE('',*,*,#156,.F.);
#35=ORIENTED_EDGE('',*,*,#157,.F.);
#36=ORIENTED_EDGE('',*,*,#158,.T.);
#37=ORIENTED_EDGE('',*,*,#159,.T.);
#38=ORIENTED_EDGE('',*,*,#160,.F.);
#39=ORIENTED_EDGE('',*,*,#161,.F.);
#40=ORIENTED_EDGE('',*,*,#156,.T.);
#41=ORIENTED_EDGE('',*,*,#162,.T.);
#42=ORIENTED_EDGE('',*,*,#163,.F.);
#43=ORIENTED_EDGE('',*,*,#164,.F.);
#44=ORIENTED_EDGE('',*,*,#160,.T.);
#45=ORIENTED_EDGE('',*,*,#165,.T.);
#46=ORIENTED_EDGE('',*,*,#166,.F.);
#47=ORIENTED_EDGE('',*,*,#167,.F.);
#48=ORIENTED_EDGE('',*,*,#163,.T.);
#49=ORIENTED_EDGE('',*,*,#168,.T.);
#50=ORIENTED_EDGE('',*,*,#169,.F.);
#51=ORIENTED_EDGE('',*,*,#170,.F.);
#52=ORIENTED_EDGE('',*,*,#166,.T.);
#53=ORIENTED_EDGE('',*,*,#171,.T.);
#54=ORIENTED_EDGE('',*,*,#172,.F.);
#55=ORIENTED_EDGE('',*,*,#173,.F.);
#56=ORIENTED_EDGE('',*,*,#169,.T.);
#57=ORIENTED_EDGE('',*,*,#174,.T.);
#58=ORIENTED_EDGE('',*,*,#175,.F.);
#59=ORIENTED_EDGE('',*,*,#176,.F.);
#60=ORIENTED_EDGE('',*,*,#172,.T.);
#61=ORIENTED_EDGE('',*,*,#177,.T.);
#62=ORIENTED_EDGE('',*,*,#178,.F.);
#63=ORIENTED_EDGE('',*,*,#179,.F.);
#64=ORIENTED_EDGE('',*,*,#175,.T.);
#65=ORIENTED_EDGE('',*,*,#180,.T.);
#66=ORIENTED_EDGE('',*,*,#181,.F.);
#67=ORIENTED_EDGE('',*,*,#182,.F.);
#68=ORIENTED_EDGE('',*,*,#178,.T.);
#69=ORIENTED_EDGE('',*,*,#183,.T.);
#70=ORIENTED_EDGE('',*,*,#184,.F.);
#71=ORIENTED_EDGE('',*,*,#185,.F.);
#72=ORIENTED_EDGE('',*,*,#181,.T.);
#73=ORIENTED_EDGE('',*,*,#186,.T.);
#74=ORIENTED_EDGE('',*,*,#187,.F.);
#75=ORIENTED_EDGE('',*,*,#188,.F.);
#76=ORIENTED_EDGE('',*,*,#184,.T.);
#77=ORIENTED_EDGE('',*,*,#189,.T.);
#78=ORIENTED_EDGE('',*,*,#190,.F.);
#79=ORIENTED_EDGE('',*,*,#191,.F.);
#80=ORIENTED_EDGE('',*,*,#187,.T.);
#81=ORIENTED_EDGE('',*,*,#192,.T.);
#82=ORIENTED_EDGE('',*,*,#193,.F.);
#83=ORIENTED_EDGE('',*,*,#194,.F.);
#84=ORIENTED_EDGE('',*,*,#190,.T.);
#85=ORIENTED_EDGE('',*,*,#195,.T.);
#86=ORIENTED_EDGE('',*,*,#196,.F.);
#87=ORIENTED_EDGE('',*,*,#197,.F.);
#88=ORIENTED_EDGE('',*,*,#193,.T.);
#89=ORIENTED_EDGE('',*,*,#198,.F.);
#90=ORIENTED_EDGE('',*,*,#199,.F.);
#91=ORIENTED_EDGE('',*,*,#200,.T.);
#92=ORIENTED_EDGE('',*,*,#201,.T.);
#93=ORIENTED_EDGE('',*,*,#202,.T.);
#94=ORIENTED_EDGE('',*,*,#203,.F.);
#95=ORIENTED_EDGE('',*,*,#204,.F.);
#96=ORIENTED_EDGE('',*,*,#199,.T.);
#97=ORIENTED_EDGE('',*,*,#205,.T.);
#98=ORIENTED_EDGE('',*,*,#206,.F.);
#99=ORIENTED_EDGE('',*,*,#207,.F.);
#100=ORIENTED_EDGE('',*,*,#203,.T.);
#101=ORIENTED_EDGE('',*,*,#208,.T.);
#102=ORIENTED_EDGE('',*,*,#209,.F.);
#103=ORIENTED_EDGE('',*,*,#210,.T.);
#104=ORIENTED_EDGE('',*,*,#211,.F.);
#105=ORIENTED_EDGE('',*,*,#212,.F.);
#106=ORIENTED_EDGE('',*,*,#201,.F.);
#107=ORIENTED_EDGE('',*,*,#213,.T.);
#108=ORIENTED_EDGE('',*,*,#206,.T.);
#109=ORIENTED_EDGE('',*,*,#214,.T.);
#110=ORIENTED_EDGE('',*,*,#158,.F.);
#111=ORIENTED_EDGE('',*,*,#215,.F.);
#112=ORIENTED_EDGE('',*,*,#196,.T.);
#113=ORIENTED_EDGE('',*,*,#200,.F.);
#114=ORIENTED_EDGE('',*,*,#204,.T.);
#115=ORIENTED_EDGE('',*,*,#207,.T.);
#116=ORIENTED_EDGE('',*,*,#213,.F.);
#117=ORIENTED_EDGE('',*,*,#210,.F.);
#118=ORIENTED_EDGE('',*,*,#208,.F.);
#119=ORIENTED_EDGE('',*,*,#157,.T.);
#120=ORIENTED_EDGE('',*,*,#161,.T.);
#121=ORIENTED_EDGE('',*,*,#164,.T.);
#122=ORIENTED_EDGE('',*,*,#167,.T.);
#123=ORIENTED_EDGE('',*,*,#170,.T.);
#124=ORIENTED_EDGE('',*,*,#173,.T.);
#125=ORIENTED_EDGE('',*,*,#176,.T.);
#126=ORIENTED_EDGE('',*,*,#179,.T.);
#127=ORIENTED_EDGE('',*,*,#182,.T.);
#128=ORIENTED_EDGE('',*,*,#185,.T.);
#129=ORIENTED_EDGE('',*,*,#188,.T.);
#130=ORIENTED_EDGE('',*,*,#191,.T.);
#131=ORIENTED_EDGE('',*,*,#194,.T.);
#132=ORIENTED_EDGE('',*,*,#197,.T.);
#133=ORIENTED_EDGE('',*,*,#215,.T.);
#134=ORIENTED_EDGE('',*,*,#198,.T.);
#135=ORIENTED_EDGE('',*,*,#212,.T.);
#136=ORIENTED_EDGE('',*,*,#205,.F.);
#137=ORIENTED_EDGE('',*,*,#202,.F.);
#138=ORIENTED_EDGE('',*,*,#211,.T.);
#139=ORIENTED_EDGE('',*,*,#209,.T.);
#140=ORIENTED_EDGE('',*,*,#155,.F.);
#141=ORIENTED_EDGE('',*,*,#214,.F.);
#142=ORIENTED_EDGE('',*,*,#195,.F.);
#143=ORIENTED_EDGE('',*,*,#192,.F.);
#144=ORIENTED_EDGE('',*,*,#189,.F.);
#145=ORIENTED_EDGE('',*,*,#186,.F.);
#146=ORIENTED_EDGE('',*,*,#183,.F.);
#147=ORIENTED_EDGE('',*,*,#180,.F.);
#148=ORIENTED_EDGE('',*,*,#177,.F.);
#149=ORIENTED_EDGE('',*,*,#174,.F.);
#150=ORIENTED_EDGE('',*,*,#171,.F.);
#151=ORIENTED_EDGE('',*,*,#168,.F.);
#152=ORIENTED_EDGE('',*,*,#165,.F.);
#153=ORIENTED_EDGE('',*,*,#162,.F.);
#154=ORIENTED_EDGE('',*,*,#159,.F.);
#155=EDGE_CURVE('',#216,#217,#258,.T.);
#156=EDGE_CURVE('',#218,#217,#259,.T.);
#157=EDGE_CURVE('',#219,#218,#260,.T.);
#158=EDGE_CURVE('',#219,#216,#261,.T.);
#159=EDGE_CURVE('',#217,#220,#12,.T.);
#160=EDGE_CURVE('',#221,#220,#262,.T.);
#161=EDGE_CURVE('',#218,#221,#13,.T.);
#162=EDGE_CURVE('',#220,#222,#263,.T.);
#163=EDGE_CURVE('',#223,#222,#264,.T.);
#164=EDGE_CURVE('',#221,#223,#265,.T.);
#165=EDGE_CURVE('',#222,#224,#14,.T.);
#166=EDGE_CURVE('',#225,#224,#266,.T.);
#167=EDGE_CURVE('',#223,#225,#15,.T.);
#168=EDGE_CURVE('',#224,#226,#267,.T.);
#169=EDGE_CURVE('',#227,#226,#268,.T.);
#170=EDGE_CURVE('',#225,#227,#269,.T.);
#171=EDGE_CURVE('',#226,#228,#16,.T.);
#172=EDGE_CURVE('',#229,#228,#270,.T.);
#173=EDGE_CURVE('',#227,#229,#17,.T.);
#174=EDGE_CURVE('',#228,#230,#271,.T.);
#175=EDGE_CURVE('',#231,#230,#272,.T.);
#176=EDGE_CURVE('',#229,#231,#273,.T.);
#177=EDGE_CURVE('',#230,#232,#274,.T.);
#178=EDGE_CURVE('',#233,#232,#275,.T.);
#179=EDGE_CURVE('',#231,#233,#276,.T.);
#180=EDGE_CURVE('',#232,#234,#277,.T.);
#181=EDGE_CURVE('',#235,#234,#278,.T.);
#182=EDGE_CURVE('',#233,#235,#279,.T.);
#183=EDGE_CURVE('',#234,#236,#280,.T.);
#184=EDGE_CURVE('',#237,#236,#281,.T.);
#185=EDGE_CURVE('',#235,#237,#282,.T.);
#186=EDGE_CURVE('',#236,#238,#283,.T.);
#187=EDGE_CURVE('',#239,#238,#284,.T.);
#188=EDGE_CURVE('',#237,#239,#285,.T.);
#189=EDGE_CURVE('',#238,#240,#286,.T.);
#190=EDGE_CURVE('',#241,#240,#287,.T.);
#191=EDGE_CURVE('',#239,#241,#288,.T.);
#192=EDGE_CURVE('',#240,#242,#18,.T.);
#193=EDGE_CURVE('',#243,#242,#289,.T.);
#194=EDGE_CURVE('',#241,#243,#19,.T.);
#195=EDGE_CURVE('',#242,#244,#290,.T.);
#196=EDGE_CURVE('',#245,#244,#291,.T.);
#197=EDGE_CURVE('',#243,#245,#292,.T.);
#198=EDGE_CURVE('',#246,#247,#293,.T.);
#199=EDGE_CURVE('',#248,#246,#294,.T.);
#200=EDGE_CURVE('',#248,#249,#295,.T.);
#201=EDGE_CURVE('',#249,#247,#296,.T.);
#202=EDGE_CURVE('',#246,#250,#297,.T.);
#203=EDGE_CURVE('',#251,#250,#298,.T.);
#204=EDGE_CURVE('',#248,#251,#299,.T.);
#205=EDGE_CURVE('',#250,#252,#300,.T.);
#206=EDGE_CURVE('',#253,#252,#301,.T.);
#207=EDGE_CURVE('',#251,#253,#302,.T.);
#208=EDGE_CURVE('',#254,#254,#20,.T.);
#209=EDGE_CURVE('',#255,#255,#21,.T.);
#210=EDGE_CURVE('',#256,#256,#22,.T.);
#211=EDGE_CURVE('',#257,#257,#23,.T.);
#212=EDGE_CURVE('',#247,#252,#303,.T.);
#213=EDGE_CURVE('',#249,#253,#304,.T.);
#214=EDGE_CURVE('',#244,#216,#24,.T.);
#215=EDGE_CURVE('',#245,#219,#25,.T.);
#216=VERTEX_POINT('',#629);
#217=VERTEX_POINT('',#630);
#218=VERTEX_POINT('',#632);
#219=VERTEX_POINT('',#634);
#220=VERTEX_POINT('',#638);
#221=VERTEX_POINT('',#640);
#222=VERTEX_POINT('',#644);
#223=VERTEX_POINT('',#646);
#224=VERTEX_POINT('',#650);
#225=VERTEX_POINT('',#652);
#226=VERTEX_POINT('',#656);
#227=VERTEX_POINT('',#658);
#228=VERTEX_POINT('',#662);
#229=VERTEX_POINT('',#664);
#230=VERTEX_POINT('',#668);
#231=VERTEX_POINT('',#670);
#232=VERTEX_POINT('',#674);
#233=VERTEX_POINT('',#676);
#234=VERTEX_POINT('',#680);
#235=VERTEX_POINT('',#682);
#236=VERTEX_POINT('',#686);
#237=VERTEX_POINT('',#688);
#238=VERTEX_POINT('',#692);
#239=VERTEX_POINT('',#694);
#240=VERTEX_POINT('',#698);
#241=VERTEX_POINT('',#700);
#242=VERTEX_POINT('',#704);
#243=VERTEX_POINT('',#706);
#244=VERTEX_POINT('',#710);
#245=VERTEX_POINT('',#712);
#246=VERTEX_POINT('',#716);
#247=VERTEX_POINT('',#717);
#248=VERTEX_POINT('',#719);
#249=VERTEX_POINT('',#721);
#250=VERTEX_POINT('',#725);
#251=VERTEX_POINT('',#727);
#252=VERTEX_POINT('',#731);
#253=VERTEX_POINT('',#733);
#254=VERTEX_POINT('',#737);
#255=VERTEX_POINT('',#739);
#256=VERTEX_POINT('',#742);
#257=VERTEX_POINT('',#744);
#258=LINE('',#628,#305);
#259=LINE('',#631,#306);
#260=LINE('',#633,#307);
#261=LINE('',#635,#308);
#262=LINE('',#639,#309);
#263=LINE('',#643,#310);
#264=LINE('',#645,#311);
#265=LINE('',#647,#312);
#266=LINE('',#651,#313);
#267=LINE('',#655,#314);
#268=LINE('',#657,#315);
#269=LINE('',#659,#316);
#270=LINE('',#663,#317);
#271=LINE('',#667,#318);
#272=LINE('',#669,#319);
#273=LINE('',#671,#320);
#274=LINE('',#673,#321);
#275=LINE('',#675,#322);
#276=LINE('',#677,#323);
#277=LINE('',#679,#324);
#278=LINE('',#681,#325);
#279=LINE('',#683,#326);
#280=LINE('',#685,#327);
#281=LINE('',#687,#328);
#282=LINE('',#689,#329);
#283=LINE('',#691,#330);
#284=LINE('',#693,#331);
#285=LINE('',#695,#332);
#286=LINE('',#697,#333);
#287=LINE('',#699,#334);
#288=LINE('',#701,#335);
#289=LINE('',#705,#336);
#290=LINE('',#709,#337);
#291=LINE('',#711,#338);
#292=LINE('',#713,#339);
#293=LINE('',#715,#340);
#294=LINE('',#718,#341);
#295=LINE('',#720,#342);
#296=LINE('',#722,#343);
#297=LINE('',#724,#344);
#298=LINE('',#726,#345);
#299=LINE('',#728,#346);
#300=LINE('',#730,#347);
#301=LINE('',#732,#348);
#302=LINE('',#734,#349);
#303=LINE('',#746,#350);
#304=LINE('',#747,#351);
#305=VECTOR('',#507,1.);
#306=VECTOR('',#508,1.);
#307=VECTOR('',#509,1.);
#308=VECTOR('',#510,1.);
#309=VECTOR('',#515,1.);
#310=VECTOR('',#520,1.);
#311=VECTOR('',#521,1.);
#312=VECTOR('',#522,1.);
#313=VECTOR('',#527,1.);
#314=VECTOR('',#532,1.);
#315=VECTOR('',#533,1.);
#316=VECTOR('',#534,1.);
#317=VECTOR('',#539,1.);
#318=VECTOR('',#544,1.);
#319=VECTOR('',#545,1.);
#320=VECTOR('',#546,1.);
#321=VECTOR('',#549,1.);
#322=VECTOR('',#550,1.);
#323=VECTOR('',#551,1.);
#324=VECTOR('',#554,1.);
#325=VECTOR('',#555,1.);
#326=VECTOR('',#556,1.);
#327=VECTOR('',#559,1.);
#328=VECTOR('',#560,1.);
#329=VECTOR('',#561,1.);
#330=VECTOR('',#564,1.);
#331=VECTOR('',#565,1.);
#332=VECTOR('',#566,1.);
#333=VECTOR('',#569,1.);
#334=VECTOR('',#570,1.);
#335=VECTOR('',#571,1.);
#336=VECTOR('',#576,1.);
#337=VECTOR('',#581,1.);
#338=VECTOR('',#582,1.);
#339=VECTOR('',#583,1.);
#340=VECTOR('',#586,1.);
#341=VECTOR('',#587,1.);
#342=VECTOR('',#588,1.);
#343=VECTOR('',#589,1.);
#344=VECTOR('',#592,1.);
#345=VECTOR('',#593,1.);
#346=VECTOR('',#594,1.);
#347=VECTOR('',#597,1.);
#348=VECTOR('',#598,1.);
#349=VECTOR('',#599,1.);
#350=VECTOR('',#614,1.);
#351=VECTOR('',#615,1.);
#352=EDGE_LOOP('',(#33,#34,#35,#36));
#353=EDGE_LOOP('',(#37,#38,#39,#40));
#354=EDGE_LOOP('',(#41,#42,#43,#44));
#355=EDGE_LOOP('',(#45,#46,#47,#48));
#356=EDGE_LOOP('',(#49,#50,#51,#52));
#357=EDGE_LOOP('',(#53,#54,#55,#56));
#358=EDGE_LOOP('',(#57,#58,#59,#60));
#359=EDGE_LOOP('',(#61,#62,#63,#64));
#360=EDGE_LOOP('',(#65,#66,#67,#68));
#361=EDGE_LOOP('',(#69,#70,#71,#72));
#362=EDGE_LOOP('',(#73,#74,#75,#76));
#363=EDGE_LOOP('',(#77,#78,#79,#80));
#364=EDGE_LOOP('',(#81,#82,#83,#84));
#365=EDGE_LOOP('',(#85,#86,#87,#88));
#366=EDGE_LOOP('',(#89,#90,#91,#92));
#367=EDGE_LOOP('',(#93,#94,#95,#96));
#368=EDGE_LOOP('',(#97,#98,#99,#100));
#369=EDGE_LOOP('',(#101));
#370=EDGE_LOOP('',(#102));
#371=EDGE_LOOP('',(#103));
#372=EDGE_LOOP('',(#104));
#373=EDGE_LOOP('',(#105,#106,#107,#108));
#374=EDGE_LOOP('',(#109,#110,#111,#112));
#375=EDGE_LOOP('',(#113,#114,#115,#116));
#376=EDGE_LOOP('',(#117));
#377=EDGE_LOOP('',(#118));
#378=EDGE_LOOP('',(#119,#120,#121,#122,#123,#124,#125,#126,#127,#128,#129,
#130,#131,#132,#133));
#379=EDGE_LOOP('',(#134,#135,#136,#137));
#380=EDGE_LOOP('',(#138));
#381=EDGE_LOOP('',(#139));
#382=EDGE_LOOP('',(#140,#141,#142,#143,#144,#145,#146,#147,#148,#149,#150,
#151,#152,#153,#154));
#383=FACE_BOUND('',#352,.T.);
#384=FACE_BOUND('',#353,.T.);
#385=FACE_BOUND('',#354,.T.);
#386=FACE_BOUND('',#355,.T.);
#387=FACE_BOUND('',#356,.T.);
#388=FACE_BOUND('',#357,.T.);
#389=FACE_BOUND('',#358,.T.);
#390=FACE_BOUND('',#359,.T.);
#391=FACE_BOUND('',#360,.T.);
#392=FACE_BOUND('',#361,.T.);
#393=FACE_BOUND('',#362,.T.);
#394=FACE_BOUND('',#363,.T.);
#395=FACE_BOUND('',#364,.T.);
#396=FACE_BOUND('',#365,.T.);
#397=FACE_BOUND('',#366,.T.);
#398=FACE_BOUND('',#367,.T.);
#399=FACE_BOUND('',#368,.T.);
#400=FACE_BOUND('',#369,.T.);
#401=FACE_BOUND('',#370,.T.);
#402=FACE_BOUND('',#371,.T.);
#403=FACE_BOUND('',#372,.T.);
#404=FACE_BOUND('',#373,.T.);
#405=FACE_BOUND('',#374,.T.);
#406=FACE_BOUND('',#375,.T.);
#407=FACE_BOUND('',#376,.T.);
#408=FACE_BOUND('',#377,.T.);
#409=FACE_BOUND('',#378,.T.);
#410=FACE_BOUND('',#379,.T.);
#411=FACE_BOUND('',#380,.T.);
#412=FACE_BOUND('',#381,.T.);
#413=FACE_BOUND('',#382,.T.);
#414=PLANE('',#466);
#415=PLANE('',#470);
#416=PLANE('',#474);
#417=PLANE('',#478);
#418=PLANE('',#479);
#419=PLANE('',#480);
#420=PLANE('',#481);
#421=PLANE('',#482);
#422=PLANE('',#483);
#423=PLANE('',#487);
#424=PLANE('',#488);
#425=PLANE('',#489);
#426=PLANE('',#490);
#427=PLANE('',#497);
#428=PLANE('',#501);
#429=PLANE('',#502);
#430=ADVANCED_FACE('',(#383),#414,.F.);
#431=ADVANCED_FACE('',(#384),#26,.T.);
#432=ADVANCED_FACE('',(#385),#415,.F.);
#433=ADVANCED_FACE('',(#386),#27,.T.);
#434=ADVANCED_FACE('',(#387),#416,.F.);
#435=ADVANCED_FACE('',(#388),#28,.T.);
#436=ADVANCED_FACE('',(#389),#417,.F.);
#437=ADVANCED_FACE('',(#390),#418,.F.);
#438=ADVANCED_FACE('',(#391),#419,.F.);
#439=ADVANCED_FACE('',(#392),#420,.F.);
#440=ADVANCED_FACE('',(#393),#421,.F.);
#441=ADVANCED_FACE('',(#394),#422,.F.);
#442=ADVANCED_FACE('',(#395),#29,.T.);
#443=ADVANCED_FACE('',(#396),#423,.F.);
#444=ADVANCED_FACE('',(#397),#424,.T.);
#445=ADVANCED_FACE('',(#398),#425,.F.);
#446=ADVANCED_FACE('',(#399),#426,.F.);
#447=ADVANCED_FACE('',(#400,#401),#30,.F.);
#448=ADVANCED_FACE('',(#402,#403),#31,.F.);
#449=ADVANCED_FACE('',(#404),#427,.T.);
#450=ADVANCED_FACE('',(#405),#32,.T.);
#451=ADVANCED_FACE('',(#406,#407,#408,#409),#428,.T.);
#452=ADVANCED_FACE('',(#410,#411,#412,#413),#429,.F.);
#453=CLOSED_SHELL('',(#430,#431,#432,#433,#434,#435,#436,#437,#438,#439,
#440,#441,#442,#443,#444,#445,#446,#447,#448,#449,#450,#451,#452));
#454=STYLED_ITEM('',(#455),#462);
#455=PRESENTATION_STYLE_ASSIGNMENT((#456));
#456=SURFACE_STYLE_USAGE(.BOTH.,#457);
#457=SURFACE_SIDE_STYLE('',(#458));
#458=SURFACE_STYLE_FILL_AREA(#459);
#459=FILL_AREA_STYLE('',(#460));
#460=FILL_AREA_STYLE_COLOUR('',#461);
#461=COLOUR_RGB('',0.768627450980392,0.886274509803922,0.952941176470588);
#462=MANIFOLD_SOLID_BREP('Display Cover - Right',#453);
#463=SHAPE_DEFINITION_REPRESENTATION(#759,#464);
#464=SHAPE_REPRESENTATION('Display Cover - Right',(#465),#754);
#465=AXIS2_PLACEMENT_3D('',#626,#503,#504);
#466=AXIS2_PLACEMENT_3D('',#627,#505,#506);
#467=AXIS2_PLACEMENT_3D('',#636,#511,#512);
#468=AXIS2_PLACEMENT_3D('',#637,#513,#514);
#469=AXIS2_PLACEMENT_3D('',#641,#516,#517);
#470=AXIS2_PLACEMENT_3D('',#642,#518,#519);
#471=AXIS2_PLACEMENT_3D('',#648,#523,#524);
#472=AXIS2_PLACEMENT_3D('',#649,#525,#526);
#473=AXIS2_PLACEMENT_3D('',#653,#528,#529);
#474=AXIS2_PLACEMENT_3D('',#654,#530,#531);
#475=AXIS2_PLACEMENT_3D('',#660,#535,#536);
#476=AXIS2_PLACEMENT_3D('',#661,#537,#538);
#477=AXIS2_PLACEMENT_3D('',#665,#540,#541);
#478=AXIS2_PLACEMENT_3D('',#666,#542,#543);
#479=AXIS2_PLACEMENT_3D('',#672,#547,#548);
#480=AXIS2_PLACEMENT_3D('',#678,#552,#553);
#481=AXIS2_PLACEMENT_3D('',#684,#557,#558);
#482=AXIS2_PLACEMENT_3D('',#690,#562,#563);
#483=AXIS2_PLACEMENT_3D('',#696,#567,#568);
#484=AXIS2_PLACEMENT_3D('',#702,#572,#573);
#485=AXIS2_PLACEMENT_3D('',#703,#574,#575);
#486=AXIS2_PLACEMENT_3D('',#707,#577,#578);
#487=AXIS2_PLACEMENT_3D('',#708,#579,#580);
#488=AXIS2_PLACEMENT_3D('',#714,#584,#585);
#489=AXIS2_PLACEMENT_3D('',#723,#590,#591);
#490=AXIS2_PLACEMENT_3D('',#729,#595,#596);
#491=AXIS2_PLACEMENT_3D('',#735,#600,#601);
#492=AXIS2_PLACEMENT_3D('',#736,#602,#603);
#493=AXIS2_PLACEMENT_3D('',#738,#604,#605);
#494=AXIS2_PLACEMENT_3D('',#740,#606,#607);
#495=AXIS2_PLACEMENT_3D('',#741,#608,#609);
#496=AXIS2_PLACEMENT_3D('',#743,#610,#611);
#497=AXIS2_PLACEMENT_3D('',#745,#612,#613);
#498=AXIS2_PLACEMENT_3D('',#748,#616,#617);
#499=AXIS2_PLACEMENT_3D('',#749,#618,#619);
#500=AXIS2_PLACEMENT_3D('',#750,#620,#621);
#501=AXIS2_PLACEMENT_3D('',#751,#622,#623);
#502=AXIS2_PLACEMENT_3D('',#752,#624,#625);
#503=DIRECTION('',(0.,0.,1.));
#504=DIRECTION('',(1.,0.,0.));
#505=DIRECTION('',(0.,-1.,0.));
#506=DIRECTION('',(0.,0.,-1.));
#507=DIRECTION('',(-1.,0.,0.));
#508=DIRECTION('',(0.,0.,-1.));
#509=DIRECTION('',(-1.,0.,0.));
#510=DIRECTION('',(0.,0.,-1.));
#511=DIRECTION('',(0.,0.,-1.));
#512=DIRECTION('',(-1.,0.,0.));
#513=DIRECTION('',(0.,0.,1.));
#514=DIRECTION('',(1.,0.,0.));
#515=DIRECTION('',(0.,0.,-1.));
#516=DIRECTION('',(0.,0.,1.));
#517=DIRECTION('',(1.,0.,0.));
#518=DIRECTION('',(1.,0.,0.));
#519=DIRECTION('',(0.,0.,-1.));
#520=DIRECTION('',(0.,-1.,0.));
#521=DIRECTION('',(0.,0.,-1.));
#522=DIRECTION('',(0.,-1.,0.));
#523=DIRECTION('',(0.,0.,-1.));
#524=DIRECTION('',(-1.,0.,0.));
#525=DIRECTION('',(0.,0.,1.));
#526=DIRECTION('',(1.,0.,0.));
#527=DIRECTION('',(0.,0.,-1.));
#528=DIRECTION('',(0.,0.,1.));
#529=DIRECTION('',(1.,0.,0.));
#530=DIRECTION('',(0.915469076014689,0.402388333405446,0.));
#531=DIRECTION('',(-0.402388333405446,0.915469076014689,0.));
#532=DIRECTION('',(0.402388333405446,-0.915469076014689,0.));
#533=DIRECTION('',(0.,0.,-1.));
#534=DIRECTION('',(0.402388333405446,-0.915469076014689,0.));
#535=DIRECTION('',(0.,0.,-1.));
#536=DIRECTION('',(-1.,0.,0.));
#537=DIRECTION('',(0.,0.,1.));
#538=DIRECTION('',(1.,0.,0.));
#539=DIRECTION('',(0.,0.,-1.));
#540=DIRECTION('',(0.,0.,1.));
#541=DIRECTION('',(1.,0.,0.));
#542=DIRECTION('',(-0.505316788415923,0.862933915977937,0.));
#543=DIRECTION('',(-0.862933915977937,-0.505316788415923,0.));
#544=DIRECTION('',(0.862933915977937,0.505316788415923,0.));
#545=DIRECTION('',(0.,0.,-1.));
#546=DIRECTION('',(0.862933915977937,0.505316788415923,0.));
#547=DIRECTION('',(-0.323828103391045,0.946115933410995,0.));
#548=DIRECTION('',(-0.946115933410995,-0.323828103391045,0.));
#549=DIRECTION('',(0.946115933410995,0.323828103391045,0.));
#550=DIRECTION('',(0.,0.,-1.));
#551=DIRECTION('',(0.946115933410995,0.323828103391045,0.));
#552=DIRECTION('',(-0.178887215693197,0.983869586917664,0.));
#553=DIRECTION('',(-0.983869586917665,-0.178887215693197,0.));
#554=DIRECTION('',(0.983869586917665,0.178887215693197,0.));
#555=DIRECTION('',(0.,0.,-1.));
#556=DIRECTION('',(0.983869586917665,0.178887215693197,0.));
#557=DIRECTION('',(0.,1.,0.));
#558=DIRECTION('',(0.,0.,1.));
#559=DIRECTION('',(1.,0.,0.));
#560=DIRECTION('',(0.,0.,-1.));
#561=DIRECTION('',(1.,0.,0.));
#562=DIRECTION('',(0.362004793416989,0.932176233092822,0.));
#563=DIRECTION('',(-0.932176233092822,0.362004793416989,0.));
#564=DIRECTION('',(0.932176233092822,-0.362004793416989,0.));
#565=DIRECTION('',(0.,0.,-1.));
#566=DIRECTION('',(0.932176233092822,-0.362004793416989,0.));
#567=DIRECTION('',(-0.109532661664791,0.993983197055476,0.));
#568=DIRECTION('',(-0.993983197055477,-0.109532661664791,0.));
#569=DIRECTION('',(0.993983197055477,0.109532661664791,0.));
#570=DIRECTION('',(0.,0.,-1.));
#571=DIRECTION('',(0.993983197055477,0.109532661664791,0.));
#572=DIRECTION('',(0.,0.,-1.));
#573=DIRECTION('',(-1.,0.,0.));
#574=DIRECTION('',(0.,0.,1.));
#575=DIRECTION('',(1.,0.,0.));
#576=DIRECTION('',(0.,0.,-1.));
#577=DIRECTION('',(0.,0.,1.));
#578=DIRECTION('',(1.,0.,0.));
#579=DIRECTION('',(-1.,0.,0.));
#580=DIRECTION('',(0.,0.,1.));
#581=DIRECTION('',(0.,1.,0.));
#582=DIRECTION('',(0.,0.,-1.));
#583=DIRECTION('',(0.,1.,0.));
#584=DIRECTION('',(1.,0.,0.));
#585=DIRECTION('',(0.,0.,-1.));
#586=DIRECTION('',(0.,-1.,0.));
#587=DIRECTION('',(0.,0.,-1.));
#588=DIRECTION('',(0.,-1.,0.));
#589=DIRECTION('',(0.,0.,-1.));
#590=DIRECTION('',(0.,1.,0.));
#591=DIRECTION('',(0.,0.,1.));
#592=DIRECTION('',(1.,0.,0.));
#593=DIRECTION('',(0.,0.,-1.));
#594=DIRECTION('',(1.,0.,0.));
#595=DIRECTION('',(1.,0.,0.));
#596=DIRECTION('',(0.,0.,-1.));
#597=DIRECTION('',(0.,-1.,0.));
#598=DIRECTION('',(0.,0.,-1.));
#599=DIRECTION('',(0.,-1.,0.));
#600=DIRECTION('',(0.,0.,-1.));
#601=DIRECTION('',(-1.,0.,0.));
#602=DIRECTION('',(0.,0.,1.));
#603=DIRECTION('',(1.,0.,0.));
#604=DIRECTION('',(0.,0.,1.));
#605=DIRECTION('',(1.,0.,0.));
#606=DIRECTION('',(0.,0.,-1.));
#607=DIRECTION('',(-1.,0.,0.));
#608=DIRECTION('',(0.,0.,1.));
#609=DIRECTION('',(1.,0.,0.));
#610=DIRECTION('',(0.,0.,1.));
#611=DIRECTION('',(1.,0.,0.));
#612=DIRECTION('',(0.,1.,0.));
#613=DIRECTION('',(0.,0.,1.));
#614=DIRECTION('',(1.,0.,0.));
#615=DIRECTION('',(1.,0.,0.));
#616=DIRECTION('',(0.,0.,-1.));
#617=DIRECTION('',(-1.,0.,0.));
#618=DIRECTION('',(0.,0.,1.));
#619=DIRECTION('',(1.,0.,0.));
#620=DIRECTION('',(0.,0.,1.));
#621=DIRECTION('',(1.,0.,0.));
#622=DIRECTION('',(0.,0.,1.));
#623=DIRECTION('',(1.,0.,0.));
#624=DIRECTION('',(0.,0.,1.));
#625=DIRECTION('',(1.,0.,0.));
#626=CARTESIAN_POINT('',(0.,0.,0.));
#627=CARTESIAN_POINT('',(-0.0555666869840527,0.03751145256091,0.0164606));
#628=CARTESIAN_POINT('',(-0.0555666869840527,0.03751145256091,0.0149606));
#629=CARTESIAN_POINT('',(-0.0464782220423222,0.03751145256091,0.0149606));
#630=CARTESIAN_POINT('',(-0.0646551519257833,0.03751145256091,0.0149606));
#631=CARTESIAN_POINT('',(-0.0646551519257833,0.03751145256091,0.0164606));
#632=CARTESIAN_POINT('',(-0.0646551519257833,0.03751145256091,0.0164606));
#633=CARTESIAN_POINT('',(-0.0555666869840527,0.03751145256091,0.0164606));
#634=CARTESIAN_POINT('',(-0.0464782220423222,0.03751145256091,0.0164606));
#635=CARTESIAN_POINT('',(-0.0464782220423222,0.03751145256091,0.0164606));
#636=CARTESIAN_POINT('',(-0.0646551519257833,0.03701145256091,0.0164606));
#637=CARTESIAN_POINT('',(-0.0646551519257833,0.03701145256091,0.0149606));
#638=CARTESIAN_POINT('',(-0.0651551519257833,0.03701145256091,0.0149606));
#639=CARTESIAN_POINT('',(-0.0651551519257833,0.03701145256091,0.0164606));
#640=CARTESIAN_POINT('',(-0.0651551519257833,0.03701145256091,0.0164606));
#641=CARTESIAN_POINT('',(-0.0646551519257833,0.03701145256091,0.0164606));
#642=CARTESIAN_POINT('',(-0.0651551519257833,0.0107963222595048,0.0164606));
#643=CARTESIAN_POINT('',(-0.0651551519257833,0.0107963222595048,0.0149606));
#644=CARTESIAN_POINT('',(-0.0651551519257833,-0.0154188080419004,0.0149606));
#645=CARTESIAN_POINT('',(-0.0651551519257833,-0.0154188080419004,0.0164606));
#646=CARTESIAN_POINT('',(-0.0651551519257833,-0.0154188080419004,0.0164606));
#647=CARTESIAN_POINT('',(-0.0651551519257833,0.0107963222595048,0.0164606));
#648=CARTESIAN_POINT('',(-0.0646551519257833,-0.0154188080419004,0.0164606));
#649=CARTESIAN_POINT('',(-0.0646551519257833,-0.0154188080419004,0.0149606));
#650=CARTESIAN_POINT('',(-0.0651128864637906,-0.0156200022086031,0.0149606));
#651=CARTESIAN_POINT('',(-0.0651128864637906,-0.0156200022086031,0.0164606));
#652=CARTESIAN_POINT('',(-0.0651128864637906,-0.0156200022086031,0.0164606));
#653=CARTESIAN_POINT('',(-0.0646551519257833,-0.0154188080419004,0.0164606));
#654=CARTESIAN_POINT('',(-0.064511270557073,-0.016988731648588,0.0164606));
#655=CARTESIAN_POINT('',(-0.064511270557073,-0.016988731648588,0.0149606));
#656=CARTESIAN_POINT('',(-0.0639096546503555,-0.0183574610885728,0.0149606));
#657=CARTESIAN_POINT('',(-0.0639096546503555,-0.0183574610885728,0.0164606));
#658=CARTESIAN_POINT('',(-0.0639096546503555,-0.0183574610885728,0.0164606));
#659=CARTESIAN_POINT('',(-0.064511270557073,-0.016988731648588,0.0164606));
#660=CARTESIAN_POINT('',(-0.0634519201123481,-0.0181562669218701,0.0164606));
#661=CARTESIAN_POINT('',(-0.0634519201123481,-0.0181562669218701,0.0149606));
#662=CARTESIAN_POINT('',(-0.0631992617181401,-0.0185877338798591,0.0149606));
#663=CARTESIAN_POINT('',(-0.0631992617181401,-0.0185877338798591,0.0164606));
#664=CARTESIAN_POINT('',(-0.0631992617181401,-0.0185877338798591,0.0164606));
#665=CARTESIAN_POINT('',(-0.0634519201123481,-0.0181562669218701,0.0164606));
#666=CARTESIAN_POINT('',(-0.0564354179203423,-0.01462696265281,0.0164606));
#667=CARTESIAN_POINT('',(-0.0564354179203423,-0.01462696265281,0.0149606));
#668=CARTESIAN_POINT('',(-0.0496715741225445,-0.010666191425761,0.0149606));
#669=CARTESIAN_POINT('',(-0.0496715741225445,-0.010666191425761,0.0164606));
#670=CARTESIAN_POINT('',(-0.0496715741225445,-0.010666191425761,0.0164606));
#671=CARTESIAN_POINT('',(-0.0564354179203423,-0.01462696265281,0.0164606));
#672=CARTESIAN_POINT('',(-0.0495240346525293,-0.0106156929349703,0.0164606));
#673=CARTESIAN_POINT('',(-0.0495240346525293,-0.0106156929349703,0.0149606));
#674=CARTESIAN_POINT('',(-0.0493764951825142,-0.0105651944441795,0.0149606));
#675=CARTESIAN_POINT('',(-0.0493764951825142,-0.0105651944441795,0.0164606));
#676=CARTESIAN_POINT('',(-0.0493764951825142,-0.0105651944441795,0.0164606));
#677=CARTESIAN_POINT('',(-0.0495240346525293,-0.0106156929349703,0.0164606));
#678=CARTESIAN_POINT('',(-0.0491723567247391,-0.0105280779799521,0.0164606));
#679=CARTESIAN_POINT('',(-0.0491723567247391,-0.0105280779799521,0.0149606));
#680=CARTESIAN_POINT('',(-0.048968218266964,-0.0104909615157247,0.0149606));
#681=CARTESIAN_POINT('',(-0.048968218266964,-0.0104909615157247,0.0164606));
#682=CARTESIAN_POINT('',(-0.048968218266964,-0.0104909615157247,0.0164606));
#683=CARTESIAN_POINT('',(-0.0491723567247391,-0.0105280779799521,0.0164606));
#684=CARTESIAN_POINT('',(-0.0488011948764324,-0.0104909615157247,0.0164606));
#685=CARTESIAN_POINT('',(-0.0488011948764324,-0.0104909615157247,0.0149606));
#686=CARTESIAN_POINT('',(-0.0463610030710697,-0.0104909615157246,0.0149606));
#687=CARTESIAN_POINT('',(-0.0463610030710697,-0.0104909615157246,0.0164606));
#688=CARTESIAN_POINT('',(-0.0463610030710697,-0.0104909615157246,0.0164606));
#689=CARTESIAN_POINT('',(-0.0488011948764324,-0.0104909615157247,0.0164606));
#690=CARTESIAN_POINT('',(-0.0463587106117814,-0.0104918517779107,0.0164606));
#691=CARTESIAN_POINT('',(-0.0463587106117814,-0.0104918517779107,0.0149606));
#692=CARTESIAN_POINT('',(-0.046356418152493,-0.0104927420400968,0.0149606));
#693=CARTESIAN_POINT('',(-0.046356418152493,-0.0104927420400968,0.0164606));
#694=CARTESIAN_POINT('',(-0.046356418152493,-0.0104927420400968,0.0164606));
#695=CARTESIAN_POINT('',(-0.0463587106117814,-0.0104918517779107,0.0164606));
#696=CARTESIAN_POINT('',(-0.0463338667860517,-0.01049025697677,0.0164606));
#697=CARTESIAN_POINT('',(-0.0463338667860517,-0.01049025697677,0.0149606));
#698=CARTESIAN_POINT('',(-0.0463113154196104,-0.0104877719134431,0.0149606));
#699=CARTESIAN_POINT('',(-0.0463113154196104,-0.0104877719134431,0.0164606));
#700=CARTESIAN_POINT('',(-0.0463113154196104,-0.0104877719134431,0.0164606));
#701=CARTESIAN_POINT('',(-0.0463338667860517,-0.01049025697677,0.0164606));
#702=CARTESIAN_POINT('',(-0.0463522878423222,-0.01011595679365,0.0164606));
#703=CARTESIAN_POINT('',(-0.0463522878423222,-0.01011595679365,0.0149606));
#704=CARTESIAN_POINT('',(-0.0459782220423222,-0.01011595679365,0.0149606));
#705=CARTESIAN_POINT('',(-0.0459782220423222,-0.01011595679365,0.0164606));
#706=CARTESIAN_POINT('',(-0.0459782220423222,-0.01011595679365,0.0164606));
#707=CARTESIAN_POINT('',(-0.0463522878423222,-0.01011595679365,0.0164606));
#708=CARTESIAN_POINT('',(-0.0459782220423222,0.01344774788363,0.0164606));
#709=CARTESIAN_POINT('',(-0.0459782220423222,0.01344774788363,0.0149606));
#710=CARTESIAN_POINT('',(-0.0459782220423222,0.03701145256091,0.0149606));
#711=CARTESIAN_POINT('',(-0.0459782220423222,0.03701145256091,0.0164606));
#712=CARTESIAN_POINT('',(-0.0459782220423222,0.03701145256091,0.0164606));
#713=CARTESIAN_POINT('',(-0.0459782220423222,0.01344774788363,0.0164606));
#714=CARTESIAN_POINT('',(-0.0600497519257833,0.0186842455225927,0.0164606));
#715=CARTESIAN_POINT('',(-0.0600497519257833,0.0186842455225927,0.0149606));
#716=CARTESIAN_POINT('',(-0.0600497519257833,0.03251145256091,0.0149606));
#717=CARTESIAN_POINT('',(-0.0600497519257833,0.00485703848427535,0.0149606));
#718=CARTESIAN_POINT('',(-0.0600497519257833,0.03251145256091,0.0164606));
#719=CARTESIAN_POINT('',(-0.0600497519257833,0.03251145256091,0.0164606));
#720=CARTESIAN_POINT('',(-0.0600497519257833,0.0186842455225927,0.0164606));
#721=CARTESIAN_POINT('',(-0.0600497519257833,0.00485703848427535,0.0164606));
#722=CARTESIAN_POINT('',(-0.0600497519257833,0.00485703848427535,0.0164606));
#723=CARTESIAN_POINT('',(-0.0545558177840527,0.03251145256091,0.0164606));
#724=CARTESIAN_POINT('',(-0.0545558177840527,0.03251145256091,0.0149606));
#725=CARTESIAN_POINT('',(-0.0490618836423222,0.03251145256091,0.0149606));
#726=CARTESIAN_POINT('',(-0.0490618836423222,0.03251145256091,0.0164606));
#727=CARTESIAN_POINT('',(-0.0490618836423222,0.03251145256091,0.0164606));
#728=CARTESIAN_POINT('',(-0.0545558177840527,0.03251145256091,0.0164606));
#729=CARTESIAN_POINT('',(-0.0490618836423222,0.0186842455225927,0.0164606));
#730=CARTESIAN_POINT('',(-0.0490618836423222,0.0186842455225927,0.0149606));
#731=CARTESIAN_POINT('',(-0.0490618836423222,0.00485703848427536,0.0149606));
#732=CARTESIAN_POINT('',(-0.0490618836423222,0.00485703848427536,0.0164606));
#733=CARTESIAN_POINT('',(-0.0490618836423222,0.00485703848427536,0.0164606));
#734=CARTESIAN_POINT('',(-0.0490618836423222,0.0186842455225927,0.0164606));
#735=CARTESIAN_POINT('',(-0.0626115108378781,-0.0153464655331018,0.0164606));
#736=CARTESIAN_POINT('',(-0.0626115108378781,-0.0153464655331018,0.0164606));
#737=CARTESIAN_POINT('',(-0.0616115108378781,-0.0153464655331018,0.0164606));
#738=CARTESIAN_POINT('',(-0.0626115108378781,-0.0153464655331018,0.0149606));
#739=CARTESIAN_POINT('',(-0.0616115108378781,-0.0153464655331018,0.0149606));
#740=CARTESIAN_POINT('',(-0.0484162220423222,-0.00833272151572465,0.0164606));
#741=CARTESIAN_POINT('',(-0.0484162220423222,-0.00833272151572465,0.0164606));
#742=CARTESIAN_POINT('',(-0.0474162220423222,-0.00833272151572465,0.0164606));
#743=CARTESIAN_POINT('',(-0.0484162220423222,-0.00833272151572465,0.0149606));
#744=CARTESIAN_POINT('',(-0.0474162220423222,-0.00833272151572465,0.0149606));
#745=CARTESIAN_POINT('',(-0.0545558177840527,0.00485703848427535,0.0164606));
#746=CARTESIAN_POINT('',(-0.0545558177840527,0.00485703848427535,0.0149606));
#747=CARTESIAN_POINT('',(-0.0545558177840527,0.00485703848427535,0.0164606));
#748=CARTESIAN_POINT('',(-0.0464782220423222,0.03701145256091,0.0164606));
#749=CARTESIAN_POINT('',(-0.0464782220423222,0.03701145256091,0.0149606));
#750=CARTESIAN_POINT('',(-0.0464782220423222,0.03701145256091,0.0164606));
#751=CARTESIAN_POINT('',(-0.0555666869840527,0.00942759281951995,0.0164606));
#752=CARTESIAN_POINT('',(-0.0555666869840527,0.00942759281951995,0.0149606));
#753=MECHANICAL_DESIGN_GEOMETRIC_PRESENTATION_REPRESENTATION('',(#454),
#754);
#754=(
GEOMETRIC_REPRESENTATION_CONTEXT(3)
GLOBAL_UNCERTAINTY_ASSIGNED_CONTEXT((#755))
GLOBAL_UNIT_ASSIGNED_CONTEXT((#758,#757,#756))
REPRESENTATION_CONTEXT('Display Cover - Right',
'TOP_LEVEL_ASSEMBLY_PART')
);
#755=UNCERTAINTY_MEASURE_WITH_UNIT(LENGTH_MEASURE(1.E-8),#758,
'DISTANCE_ACCURACY_VALUE','Maximum Tolerance applied to model');
#756=(
NAMED_UNIT(*)
SI_UNIT($,.STERADIAN.)
SOLID_ANGLE_UNIT()
);
#757=(
NAMED_UNIT(*)
PLANE_ANGLE_UNIT()
SI_UNIT($,.RADIAN.)
);
#758=(
LENGTH_UNIT()
NAMED_UNIT(*)
SI_UNIT($,.METRE.)
);
#759=PRODUCT_DEFINITION_SHAPE('','',#760);
#760=PRODUCT_DEFINITION('','',#762,#761);
#761=PRODUCT_DEFINITION_CONTEXT('',#768,'design');
#762=PRODUCT_DEFINITION_FORMATION_WITH_SPECIFIED_SOURCE('','',#764,
 .NOT_KNOWN.);
#763=PRODUCT_RELATED_PRODUCT_CATEGORY('','',(#764));
#764=PRODUCT('Display Cover - Right','Display Cover - Right',
'Display Cover - Right',(#766));
#765=PRODUCT_CATEGORY('','');
#766=PRODUCT_CONTEXT('',#768,'mechanical');
#767=APPLICATION_PROTOCOL_DEFINITION('international standard',
'ap242_managed_model_based_3d_engineering',2020,#768);
#768=APPLICATION_CONTEXT('managed model based 3d engineering');
ENDSEC;
END-ISO-10303-21;
